<mxfile host="65bd71144e">
    <diagram id="r4JuILthGag62dPk0cjr" name="Page-1">
        <mxGraphModel dx="662" dy="485" grid="1" gridSize="10" guides="1" tooltips="1" connect="1" arrows="1" fold="1" page="1" pageScale="1" pageWidth="1169" pageHeight="827" background="#ffffff" math="0" shadow="0">
            <root>
                <mxCell id="0"/>
                <mxCell id="1" parent="0"/>
                <mxCell id="7" value="" style="ellipse;whiteSpace=wrap;html=1;aspect=fixed;fontSize=16;fillColor=#7F00FF;" vertex="1" parent="1">
                    <mxGeometry x="110" y="230" width="290" height="290" as="geometry"/>
                </mxCell>
                <mxCell id="2" value="" style="shape=umlActor;verticalLabelPosition=bottom;verticalAlign=top;html=1;outlineConnect=0;fillColor=#7f00ff;" vertex="1" parent="1">
                    <mxGeometry x="150" y="370" width="30" height="60" as="geometry"/>
                </mxCell>
                <mxCell id="3" value="SERVER" style="whiteSpace=wrap;html=1;aspect=fixed;fillColor=#7f00ff;" vertex="1" parent="1">
                    <mxGeometry x="290" y="360" width="80" height="80" as="geometry"/>
                </mxCell>
                <mxCell id="4" value="" style="shape=flexArrow;endArrow=classic;html=1;entryX=0;entryY=0.5;entryDx=0;entryDy=0;" edge="1" parent="1" target="3">
                    <mxGeometry width="50" height="50" relative="1" as="geometry">
                        <mxPoint x="190" y="400" as="sourcePoint"/>
                        <mxPoint x="570" y="460" as="targetPoint"/>
                    </mxGeometry>
                </mxCell>
                <mxCell id="5" value="&lt;ul&gt;&lt;li&gt;&lt;b&gt;Deploy&lt;/b&gt;&lt;/li&gt;&lt;li&gt;&lt;b&gt;Updatre&lt;/b&gt;&lt;/li&gt;&lt;li&gt;&lt;b&gt;Upgrade&lt;/b&gt;&lt;/li&gt;&lt;li&gt;&lt;b&gt;Patch&lt;/b&gt;&lt;/li&gt;&lt;/ul&gt;" style="text;html=1;align=left;verticalAlign=middle;resizable=0;points=[];autosize=1;strokeColor=none;fillColor=none;" vertex="1" parent="1">
                    <mxGeometry x="165" y="290" width="110" height="120" as="geometry"/>
                </mxCell>
                <mxCell id="6" value="&lt;font size=&quot;1&quot; style=&quot;&quot;&gt;&lt;b style=&quot;font-size: 24px;&quot;&gt;Mutable&lt;/b&gt;&lt;/font&gt;" style="text;html=1;strokeColor=none;fillColor=none;align=center;verticalAlign=middle;whiteSpace=wrap;rounded=0;fontColor=#000000;" vertex="1" parent="1">
                    <mxGeometry x="225" y="170" width="60" height="30" as="geometry"/>
                </mxCell>
                <mxCell id="13" value="" style="ellipse;whiteSpace=wrap;html=1;aspect=fixed;fontSize=16;fillColor=#006600;" vertex="1" parent="1">
                    <mxGeometry x="560" y="230" width="290" height="290" as="geometry"/>
                </mxCell>
                <mxCell id="14" value="" style="shape=umlActor;verticalLabelPosition=bottom;verticalAlign=top;html=1;outlineConnect=0;fillColor=#006600;" vertex="1" parent="1">
                    <mxGeometry x="600" y="370" width="30" height="60" as="geometry"/>
                </mxCell>
                <mxCell id="15" value="SERVER&lt;br&gt;V 0.1" style="whiteSpace=wrap;html=1;aspect=fixed;fillColor=#006600;" vertex="1" parent="1">
                    <mxGeometry x="690" y="440" width="60" height="60" as="geometry"/>
                </mxCell>
                <mxCell id="16" value="" style="shape=flexArrow;endArrow=classic;html=1;entryX=0.133;entryY=0.017;entryDx=0;entryDy=0;entryPerimeter=0;fillColor=#006600;" edge="1" parent="1" target="15">
                    <mxGeometry width="50" height="50" relative="1" as="geometry">
                        <mxPoint x="640" y="400" as="sourcePoint"/>
                        <mxPoint x="1020" y="460" as="targetPoint"/>
                    </mxGeometry>
                </mxCell>
                <mxCell id="17" value="&lt;b style=&quot;background-color: initial;&quot;&gt;Deploy&lt;/b&gt;" style="text;html=1;align=left;verticalAlign=middle;resizable=0;points=[];autosize=1;strokeColor=none;fillColor=none;" vertex="1" parent="1">
                    <mxGeometry x="620" y="440" width="60" height="30" as="geometry"/>
                </mxCell>
                <mxCell id="18" value="&lt;font size=&quot;1&quot; style=&quot;&quot;&gt;&lt;b style=&quot;font-size: 24px;&quot;&gt;Immutable&lt;/b&gt;&lt;/font&gt;" style="text;html=1;strokeColor=none;fillColor=none;align=center;verticalAlign=middle;whiteSpace=wrap;rounded=0;fontColor=#000000;" vertex="1" parent="1">
                    <mxGeometry x="675" y="170" width="60" height="30" as="geometry"/>
                </mxCell>
                <mxCell id="19" value="SERVER&lt;br&gt;V 0.2" style="whiteSpace=wrap;html=1;aspect=fixed;fillColor=#006600;" vertex="1" parent="1">
                    <mxGeometry x="750" y="290" width="70" height="70" as="geometry"/>
                </mxCell>
                <mxCell id="20" value="" style="shape=flexArrow;endArrow=classic;html=1;entryX=0;entryY=0.25;entryDx=0;entryDy=0;fillColor=#006600;" edge="1" parent="1" source="14" target="19">
                    <mxGeometry width="50" height="50" relative="1" as="geometry">
                        <mxPoint x="650" y="410" as="sourcePoint"/>
                        <mxPoint x="707.98" y="451.02" as="targetPoint"/>
                    </mxGeometry>
                </mxCell>
                <mxCell id="21" value="&lt;ul style=&quot;font-size: 12px; text-align: left;&quot;&gt;&lt;li&gt;&lt;b&gt;Updatre&lt;/b&gt;&lt;/li&gt;&lt;li&gt;&lt;b&gt;Upgrade&lt;/b&gt;&lt;/li&gt;&lt;li&gt;&lt;b&gt;Patch&lt;/b&gt;&lt;/li&gt;&lt;/ul&gt;" style="text;html=1;strokeColor=none;fillColor=none;align=center;verticalAlign=middle;whiteSpace=wrap;rounded=0;fontSize=24;" vertex="1" parent="1">
                    <mxGeometry x="620" y="310" width="60" height="30" as="geometry"/>
                </mxCell>
                <mxCell id="24" value="" style="endArrow=classic;html=1;fontSize=24;exitX=0.5;exitY=1;exitDx=0;exitDy=0;" edge="1" parent="1" source="19" target="15">
                    <mxGeometry width="50" height="50" relative="1" as="geometry">
                        <mxPoint x="880" y="350" as="sourcePoint"/>
                        <mxPoint x="930" y="300" as="targetPoint"/>
                        <Array as="points">
                            <mxPoint x="810" y="380"/>
                            <mxPoint x="810" y="410"/>
                            <mxPoint x="790" y="450"/>
                        </Array>
                    </mxGeometry>
                </mxCell>
                <mxCell id="25" value="&lt;font style=&quot;font-size: 14px;&quot;&gt;Destroy&lt;/font&gt;" style="text;html=1;strokeColor=none;fillColor=none;align=center;verticalAlign=middle;whiteSpace=wrap;rounded=0;fontSize=24;" vertex="1" parent="1">
                    <mxGeometry x="750" y="399" width="60" height="30" as="geometry"/>
                </mxCell>
            </root>
        </mxGraphModel>
    </diagram>
</mxfile>
